<?xml version="1.0" standalone="no"?>
<!DOCTYPE svg PUBLIC "-//W3C//DTD SVG 20010904//EN"
 "http://www.w3.org/TR/2001/REC-SVG-20010904/DTD/svg10.dtd">
<svg version="1.0" xmlns="http://www.w3.org/2000/svg"
 width="260.000000pt" height="260.000000pt" viewBox="0 0 260.000000 260.000000"
 preserveAspectRatio="xMidYMid meet">
<metadata>
Created by potrace 1.11, written by Peter Selinger 2001-2013
</metadata>
<g transform="translate(0.000000,260.000000) scale(0.100000,-0.100000)"
fill="#000000" stroke="none">
<path d="M427 2463 c-3 -5 -4 -420 -3 -923 l1 -915 260 0 260 0 3 503 c1 276
6 502 10 502 5 0 20 -17 33 -37 33 -50 168 -247 433 -633 119 -173 217 -319
219 -325 2 -6 106 -10 273 -10 l269 0 1 923 0 922 -263 0 c-203 0 -263 -3
-264 -12 0 -7 -1 -236 -1 -510 -1 -355 -4 -495 -12 -492 -6 3 -23 24 -37 47
-55 88 -273 402 -281 405 -4 2 -8 7 -8 12 0 10 -145 226 -171 256 -11 11 -19
25 -19 31 0 5 -9 18 -20 28 -11 10 -20 24 -20 32 0 7 -4 13 -10 13 -5 0 -10 7
-10 15 0 8 -4 15 -10 15 -5 0 -10 5 -10 11 0 6 -6 16 -12 24 -7 7 -30 38 -51
69 l-38 56 -259 0 c-142 0 -261 -3 -263 -7z"/>
<path d="M365 412 c-3 -3 -5 -47 -5 -99 0 -81 2 -93 18 -94 9 -1 432 -2 939
-3 814 -1 923 1 924 14 0 10 3 8 9 -5 10 -24 11 -23 14 38 2 26 -1 47 -6 47
-5 0 -6 -5 -2 -12 4 -6 3 -8 -3 -5 -14 9 -9 47 6 57 8 4 10 13 6 19 -5 9 -11
7 -20 -6 -12 -16 -13 -14 -9 18 l5 37 -935 -1 c-515 0 -938 -2 -941 -5z m1890
-141 c3 -5 2 -12 -3 -15 -5 -3 -9 1 -9 9 0 17 3 19 12 6z"/>
</g>
</svg>
